<?xml version="1.0" encoding="utf-8"?>
<!-- Generator: Adobe Illustrator 16.0.0, SVG Export Plug-In . SVG Version: 6.00 Build 0)  -->
<!DOCTYPE svg PUBLIC "-//W3C//DTD SVG 1.1//EN" "http://www.w3.org/Graphics/SVG/1.1/DTD/svg11.dtd">
<svg version="1.1" id="Layer_1" xmlns="http://www.w3.org/2000/svg" xmlns:xlink="http://www.w3.org/1999/xlink" x="0px" y="0px"
	 width="51.023px" height="48.189px" viewBox="99.278 6.578 51.023 48.189" enable-background="new 99.278 6.578 51.023 48.189"
	 xml:space="preserve">
<path fill="#669934" d="M150.363,7.279l-0.158,0.057c-1.155,0.418-2.354,0.904-3.666,1.483l0,0l-0.188,0.083
	c-1.174,0.521-2.418,1.11-3.913,1.847l0,0l-0.219,0.109c-1.014,0.502-2.021,1.012-2.996,1.506c-0.398,0.203-0.8,0.405-1.201,0.607
	l-0.031,0.015v0.001l-0.174,0.087c-1.278,0.646-2.791,1.399-4.32,2.111l-0.031,0.014l0,0l-0.18,0.083
	c-1.545,0.714-2.93,1.302-4.233,1.798l-0.035,0.014l0,0l-0.169,0.063c-1.41,0.528-2.713,0.943-3.982,1.271l-0.042,0.01l0,0
	l-0.148,0.038c-1.26,0.314-2.493,0.54-3.664,0.666l-0.05,0.005v0.001l-0.123,0.012c-1.123,0.113-2.248,0.139-3.346,0.079
	l-0.061-0.003l0,0l-0.098-0.007c-0.995-0.063-2.035-0.197-3.09-0.398l-0.07-0.014l0,0l-0.079-0.016
	c-0.937-0.185-1.919-0.429-2.92-0.726l-0.076-0.021l-0.037,0.069c-0.42,0.789-0.851,1.586-1.285,2.392l-0.297,0.55l0,0l-0.016,0.029
	c-0.478,0.885-0.989,1.835-1.49,2.788l-0.05,0.097l0,0l-0.018,0.033c-0.529,1.008-0.99,1.913-1.41,2.768l-0.024,0.049l0,0l0,0
	l-0.021,0.043l0,0l-0.019,0.038c-0.48,0.981-0.904,1.89-1.294,2.777l-0.039,0.088l0,0l-0.02,0.045
	c-0.424,0.969-0.808,1.917-1.143,2.817l-0.015,0.037l0,0l-0.006,0.016l-0.011,0.031l0,0l-0.02,0.053
	c-0.364,0.99-0.684,1.961-0.948,2.891l-0.009,0.031l0,0l-0.003,0.018l-0.009,0.031l0,0l-0.017,0.064
	c-0.289,1.021-0.521,2.033-0.694,3.002L102.2,38.83l0,0l-0.008,0.045v0.004l0,0l-0.013,0.076c-0.186,1.078-0.303,2.145-0.347,3.168
	v0.012l0,0l-0.005,0.146c-0.01,0.271-0.015,0.543-0.015,0.811c0,0.84,0.05,1.711,0.149,2.588l0,0l0.021,0.174
	c0.142,1.176,0.377,2.41,0.7,3.668l0.011,0.043l0.042,0.02c1.403,0.666,2.652,1.223,3.818,1.705l0.19,0.08h-0.001
	c1.346,0.551,2.583,1.002,3.782,1.381l0.184,0.061l0,0c1.265,0.393,2.498,0.703,3.663,0.92l0.168,0.031l0,0
	c1.195,0.215,2.367,0.34,3.483,0.375l0.146,0.004l0,0h0.013c0.163,0.004,0.326,0.006,0.489,0.006c0.901,0,1.838-0.061,2.786-0.182
	l0.073-0.008l0,0l0.037-0.004l0.012-0.002l0,0l0.027-0.004c1-0.133,2.049-0.336,3.114-0.604l0.057-0.014l0,0l0.009-0.002l0.038-0.01
	l0,0l0.038-0.008c0.962-0.248,1.977-0.557,3.014-0.918l0.045-0.016l0,0l0.092-0.031c0.95-0.336,1.918-0.711,2.964-1.152l0.035-0.016
	l0,0l0.099-0.041c0.926-0.395,1.894-0.83,2.957-1.334l0.028-0.014l0,0l0.106-0.051c0.884-0.42,1.834-0.885,2.99-1.463l0.066-0.035
	l-0.016-0.072c-0.221-1.049-0.375-2.084-0.465-3.076l-0.009-0.098l-0.004-0.057c-0.051-0.619-0.077-1.24-0.077-1.842
	c0-0.477,0.016-0.963,0.047-1.449l0.008-0.113l0,0l0.004-0.055c0.083-1.146,0.254-2.346,0.511-3.563l0.028-0.137l0,0l0.011-0.045
	c0.267-1.23,0.631-2.527,1.081-3.855l0.054-0.158l0,0l0.013-0.037c0.455-1.322,0.994-2.679,1.646-4.148l0.079-0.178l0,0l0.014-0.032
	c0.598-1.333,1.292-2.767,2.125-4.382l0.098-0.189l0,0l0.015-0.027c0.735-1.423,1.493-2.823,2.229-4.188l0.295-0.544l0,0
	c0.791-1.464,1.56-2.896,2.272-4.315l0.12-0.237l0,0c0.768-1.539,1.365-2.866,1.831-4.055l0.08-0.206h-0.001
	c0.529-1.384,0.886-2.605,1.09-3.734L150.363,7.279z M108.923,45.195L108.923,45.195L108.923,45.195l-0.009-0.098
	c-0.061-0.676-0.091-1.35-0.091-2.004c0-0.438,0.013-0.885,0.04-1.328l0.004-0.072l0,0l0.005-0.08
	c0.067-1.023,0.206-2.088,0.413-3.168l0.01-0.055l0.018-0.088c0.194-0.986,0.451-2.016,0.763-3.059l0.021-0.074l0.02-0.064
	c0.292-0.963,0.64-1.971,1.036-2.998l0.024-0.061l0.028-0.074c0.374-0.958,0.785-1.932,1.259-2.977l0.028-0.061l0,0l0.033-0.074
	c0.432-0.945,0.904-1.925,1.444-2.997l0.034-0.068l0.077,0.016c1.068,0.211,2.117,0.353,3.121,0.422h0.012l0,0l0.146,0.009
	c0.429,0.026,0.866,0.04,1.298,0.04l0,0c0.681,0,1.375-0.033,2.063-0.099v0.001l0.176-0.019c1.164-0.12,2.389-0.336,3.64-0.643
	v0.001l0.207-0.052c1.258-0.317,2.548-0.724,3.942-1.239l-0.001,0.002l0.237-0.09c1.308-0.491,2.694-1.077,4.239-1.788v0.001
	l0.264-0.119c1.559-0.724,3.125-1.504,4.459-2.177l-0.244,0.452c-0.705,1.304-1.433,2.65-2.146,4.025l-0.135,0.26l0,0
	c-0.817,1.583-1.502,2.987-2.092,4.289l-0.107,0.237l0.002-0.001c-0.637,1.425-1.17,2.746-1.623,4.033l-0.073,0.209l0,0
	c-0.452,1.301-0.822,2.572-1.101,3.779l-0.041,0.184l0,0c-0.272,1.217-0.461,2.414-0.563,3.557l-0.013,0.158l0,0v0.006
	c-0.051,0.621-0.076,1.242-0.076,1.844c0,0.494,0.018,1,0.052,1.506l0.005,0.082l-0.074,0.029c-1.133,0.447-2.185,0.818-3.216,1.137
	l-0.078,0.023l0,0l-0.063,0.02c-1.104,0.334-2.186,0.604-3.212,0.803l-0.044,0.008l-0.006-0.045c-0.17-1.113-0.264-2.215-0.278-3.27
	v-0.064l0,0l-0.001-0.225c0-1.041,0.076-2.123,0.227-3.221l0.011-0.082l0,0l0.01-0.068c0.159-1.115,0.401-2.281,0.718-3.467
	l0.027-0.1l0,0l0.016-0.057c0.313-1.15,0.708-2.363,1.174-3.604l0.066-0.172l-0.18,0.045c-1.226,0.314-2.424,0.541-3.564,0.678
	l-0.059,0.006l0,0l-0.101,0.012c-1.134,0.125-2.262,0.166-3.356,0.117l-0.071-0.002l-0.024,0.066c-0.4,1.123-0.74,2.227-1.012,3.277
	l-0.028,0.111l0,0l-0.009,0.031c-0.283,1.119-0.499,2.225-0.641,3.281L115.952,40l0,0l-0.004,0.035l-0.002,0.012l0,0l-0.006,0.049
	c-0.131,1.02-0.198,2.029-0.198,3.002c0,0.107,0.001,0.215,0.002,0.322v0.035l0,0V43.5v0.004l0,0l0.002,0.063
	c0.023,1.094,0.131,2.234,0.321,3.389l0.003,0.023l-0.022-0.002c-1.095-0.131-2.248-0.348-3.424-0.641l-0.089-0.021l0,0
	l-0.063-0.018c-1.111-0.281-2.242-0.631-3.457-1.064L108.923,45.195z"/>
<text transform="matrix(1 0 0 1 176.46 -117.8225)" font-family="'BemboStd-Semibold'" font-size="28.6879">Campus Welt</text>
</svg>
